PathFileType	4	(X/Y/Z)	C:\Users\Willi\SynologyDrive\Deimel_MSc_Deadlift\Athlete_03\Athlete_3_22_07_06\dl_75\marker_experimental.trc
DataRate	CameraRate	NumFrames	NumMarkers	Units	OrigDataRate	OrigDataStartFrame	OrigNumFrames
200.000000	200.000000	4	59	mm	200.000000	1427	2855
Frame#	Time	BR			GLAB			RFHD			LFHD			C7			T6			SPINMOL			SPINM2			SPINM3			T12			BELTOL			BELT2			BELT3			SACROL			SACR2			SACR3			LTHOL			LTH2			LTH3			LSHAOL			LSHA2			LSHA3			LHEE			LTOE			LM5			RTHOL			RTH2			RTH3			RSHAOL			RSHA2			RSHA3			RHEE			RTOE			RM5			STRN			XIPH			LACR			LUAOL			LUA2			LUA3			LLAOL			LLA2			LLA3			LWRU			RACR			RUAOL			RUA2			RUA3			RLAOL			RLA2			RLA3			RWRU			BL			USERMO0			USERMO1			USERMO2			USERMO3			USERMO4			USERMO5			
		X1	Y1	Z1	X2	Y2	Z2	X3	Y3	Z3	X4	Y4	Z4	X5	Y5	Z5	X6	Y6	Z6	X7	Y7	Z7	X8	Y8	Z8	X9	Y9	Z9	X10	Y10	Z10	X11	Y11	Z11	X12	Y12	Z12	X13	Y13	Z13	X14	Y14	Z14	X15	Y15	Z15	X16	Y16	Z16	X17	Y17	Z17	X18	Y18	Z18	X19	Y19	Z19	X20	Y20	Z20	X21	Y21	Z21	X22	Y22	Z22	X23	Y23	Z23	X24	Y24	Z24	X25	Y25	Z25	X26	Y26	Z26	X27	Y27	Z27	X28	Y28	Z28	X29	Y29	Z29	X30	Y30	Z30	X31	Y31	Z31	X32	Y32	Z32	X33	Y33	Z33	X34	Y34	Z34	X35	Y35	Z35	X36	Y36	Z36	X37	Y37	Z37	X38	Y38	Z38	X39	Y39	Z39	X40	Y40	Z40	X41	Y41	Z41	X42	Y42	Z42	X43	Y43	Z43	X44	Y44	Z44	X45	Y45	Z45	X46	Y46	Z46	X47	Y47	Z47	X48	Y48	Z48	X49	Y49	Z49	X50	Y50	Z50	X51	Y51	Z51	X52	Y52	Z52	X53	Y53	Z53	X54	Y54	Z54	X55	Y55	Z55	X56	Y56	Z56	X57	Y57	Z57	X58	Y58	Z58	X59	Y59	Z59	

1428	7.135	200.2151641845703	251.3348083496094	-101.6410751342773	618.4365844726562	829.8888549804689	-1197.610229492188	594.4677734375	888.6257324218751	-1122.326782226562	598.1629638671875	887.0828857421876	-1277.640502929688	434.7344055175781	998.0855712890626	-1203.984741210938	252.4094848632812	1061.1220703125	-1219.5009765625	216.4605560302734	1073.3798828125	-1222.13818359375	154.8044128417969	1076.445434570312	-1171.047119140625	154.3718719482422	1076.573852539062	-1220.982299804688	95.02510833740234	1070.78271484375	-1223.916625976562	66.67604064941406	1099.213256835938	-1222.811889648438	6.341953754425049	1088.634887695312	-1171.410766601562	4.594907760620117	1095.142211914062	-1221.118408203125	-112.0473861694336	1025.851928710938	-1248.547729492188	-102.5630874633789	1027.376342773438	-1198.360595703125	-161.7321014404297	1001.852661132813	-1211.557373046875	-25.15802955627441	739.0244140625001	-1449.741943359375	-50.66716766357422	664.2603759765626	-1435.440063476562	-3.639536619186401	681.3353881835939	-1443.581665039062	40.23935317993164	342.2038879394532	-1426.402465820312	7.413973331451416	271.5316772460939	-1414.53759765625	55.64818954467773	282.5392150878907	-1418.841918945312	1.353152632713318	64.49877166748055	-1322.276245117188	212.0946807861328	75.19036865234384	-1330.640991210938	166.3752746582031	54.61649703979501	-1435.242553710938	-31.87247467041016	706.4255981445314	-1007.012878417969	35.10181427001953	662.8712768554689	-1004.4794921875	-12.41102504730225	647.2314453125001	-1009.275390625	21.76604843139648	337.6910400390626	-1012.1298828125	70.03385925292969	274.4269409179688	-1012.77734375	20.78411483764648	277.1919860839844	-1022.392395019531	-0.1980602443218231	62.25635147094734	-1113.199340820312	211.5238952636719	69.78823089599616	-1093.336669921875	166.0457153320312	67.11591339111334	-996.837890625	363.9916076660156	835.2789306640626	-1213.561767578125	212.3943328857422	788.7638549804689	-1199.344604492188	416.8203430175781	865.3143310546876	-1400.944702148438	363.3353576660156	741.8638305664064	-1465.47705078125	321.8969116210938	694.9811401367189	-1489.024047851562	357.7506408691406	676.7752075195314	-1457.2353515625	288.075439453125	469.4468078613282	-1461.257568359375	254.9963684082031	416.2524414062501	-1480.793212890625	278.2030944824219	410.325164794922	-1436.942016601562	238.6364440917969	324.8423461914064	-1465.140869140625	406.8662719726562	854.3794555664064	-1030.282836914062	350.8281555175781	701.7212524414064	-995.4832763671875	334.298828125	646.9127197265626	-1027.001831054688	332.0775756835938	641.0756835937501	-977.2078857421875	280.8632507324219	453.2796020507813	-976.073974609375	265.7779235839844	398.5149536132813	-1006.889831542969	259.5323181152344	395.8619079589844	-956.0750732421875	236.1147003173828	324.3095092773438	-952.0447998046875	182.5186614990234	247.913787841797	-2324.464599609375	0.03753549978137016	0.2244559973478318	-0.3729330003261566	0.3293220102787018	2.973040103912354	-0.2715440094470976	2.760129928588867	0.02553920075297356	-0.02224740013480186	0.007203460205346346	0.01812759973108768	-0.02635850012302399	0.0262422002851963	0.009044749662280083	-0.0111803999170661	0.04617710039019585	0	0	
1429	7.140000000000001	200.2354583740234	251.3332214355469	-101.640007019043	618.6597290039062	830.0263671875001	-1197.68359375	594.6399536132812	888.7310791015626	-1122.397583007812	598.3287963867188	887.2094726562501	-1277.700073242188	435.0230102539062	998.2004394531251	-1203.987670898438	252.7794189453125	1061.37060546875	-1219.504272460938	216.8084259033203	1073.676025390625	-1222.161499023438	155.1492309570312	1076.798217773438	-1171.072631835938	154.7229309082031	1076.947509765625	-1221.009033203125	95.31041717529297	1071.241088867188	-1223.94921875	66.95613098144531	1099.670654296875	-1222.819946289062	6.618334293365479	1089.120361328125	-1171.416625976562	4.872593402862549	1095.647583007812	-1221.121704101562	-111.8353042602539	1026.470581054688	-1248.563110351562	-102.3464279174805	1027.96875	-1198.378784179688	-161.5337829589844	1002.495971679688	-1211.579467773438	-25.63330268859863	739.2393798828126	-1449.8056640625	-51.38974761962891	664.5863037109376	-1435.3564453125	-4.313064575195312	681.4869384765626	-1443.594482421875	39.38053131103516	342.1979980468751	-1426.259521484375	6.779597282409668	271.4213256835939	-1414.399291992188	54.97721099853516	282.5746154785157	-1418.75341796875	1.358146071434021	64.46238708496102	-1322.303588867188	212.0958709716797	75.19509887695321	-1330.665771484375	166.3685150146484	54.58713912963876	-1435.255859375	-32.37688064575195	706.6713867187501	-1007.061157226562	34.43619918823242	662.8701782226564	-1004.526977539062	-13.12834548950195	647.4082031250001	-1009.383422851562	21.02537536621094	337.6476745605469	-1012.28515625	69.46202087402344	274.5142517089844	-1012.829284667969	20.21203994750977	277.1455688476563	-1022.488647460938	-0.19872185587883	62.23342132568366	-1113.188598632812	211.5285186767578	69.79527282714851	-1093.319702148438	166.0383453369141	67.09626770019537	-996.8203735351562	364.2501220703125	835.3285522460939	-1213.664428710938	212.5637969970703	788.9746093750001	-1199.594482421875	417.1479797363281	865.4793701171876	-1401.086181640625	363.3396606445312	741.9649047851564	-1465.526611328125	321.8248291015625	695.0779418945314	-1488.912109375	357.8248901367188	676.8896484375001	-1457.27880859375	288.2904052734375	469.5833435058595	-1461.07568359375	255.1733703613281	416.4080810546876	-1480.60986328125	278.4522705078125	410.4418029785157	-1436.8056640625	238.8066101074219	324.9734802246095	-1465.029541015625	407.3044128417969	854.2470703125001	-1030.411743164062	351.1290588378906	701.5307006835939	-995.6182250976562	334.6190795898438	646.7331542968751	-1027.16455078125	332.3154296875	640.8915405273439	-977.3753051757812	281.0415649414062	453.1875915527344	-976.1307983398438	265.9356384277344	398.3708801269532	-1006.856323242188	259.6832275390625	395.8069458007813	-956.0321044921875	236.1259002685547	324.2148437500001	-951.8641357421875	182.5159301757812	247.9060516357423	-2324.452880859375	0.04105089977383614	0.2238399982452393	-0.3768090009689331	0.329479992389679	2.97586989402771	-0.2710539996623991	2.757859945297241	0.02435039915144444	-0.02109229937195778	0.007246859837323427	0.0177788995206356	-0.02687389962375164	0.02541390061378479	0.009162000380456448	-0.01112610008567572	0.04608789831399918	0	0	
1430	7.145	200.2560882568359	251.3321228027344	-101.6389923095703	618.8801879882812	830.1584472656251	-1197.76123046875	594.8056640625	888.8289794921876	-1122.472412109375	598.48583984375	887.3305053710939	-1277.763427734375	435.2900695800781	998.2977294921876	-1203.99609375	253.1190795898438	1061.588623046875	-1219.505126953125	217.1277313232422	1073.937744140625	-1222.18115234375	155.4673004150391	1077.111328125	-1171.092529296875	155.0451354980469	1077.28173828125	-1221.030395507812	95.57240295410156	1071.657592773438	-1223.975463867188	67.21392822265625	1100.08154296875	-1222.821166992188	6.873920917510986	1089.5556640625	-1171.414794921875	5.128406524658203	1096.10302734375	-1221.116821289062	-111.6440963745117	1027.033325195312	-1248.569213867188	-102.1485214233398	1028.506591796875	-1198.387573242188	-161.3530120849609	1003.081176757813	-1211.591674804688	-26.08814239501953	739.4385375976564	-1449.883544921875	-52.07445907592773	664.8887939453126	-1435.290893554688	-4.953875064849854	681.6252441406251	-1443.628540039062	38.5706787109375	342.1881103515626	-1426.140747070312	6.181327342987061	271.3146057128907	-1414.280395507812	54.34428024291992	282.604705810547	-1418.683227539062	1.363704681396484	64.42847442626962	-1322.33251953125	212.0968627929688	75.20096588134774	-1330.693481445312	166.3614349365234	54.55619812011727	-1435.271484375	-32.8505973815918	706.8892822265626	-1007.090881347656	33.81010055541992	662.8585205078126	-1004.544677734375	-13.80051326751709	647.5627441406251	-1009.468078613281	20.34270477294922	337.5997619628907	-1012.4208984375	68.93695068359375	274.5897521972657	-1012.871887207031	19.68643569946289	277.0968627929688	-1022.570922851562	-0.1962513029575348	62.21309661865241	-1113.180053710938	211.53271484375	69.80030822753913	-1093.302612304688	166.0318450927734	67.07744598388678	-996.8035888671875	364.5007934570312	835.3574218750001	-1213.76708984375	212.7300415039062	789.1510009765626	-1199.840698242188	417.4490356445312	865.6307983398439	-1401.23681640625	363.3197937011719	742.0594482421876	-1465.604248046875	321.7283020019531	695.1721191406251	-1488.833129882812	357.8722229003906	676.9948730468751	-1457.356689453125	288.4817199707031	469.7091064453126	-1460.93701171875	255.3277587890625	416.5497436523439	-1480.464599609375	278.6842346191406	410.5474853515626	-1436.710083007812	238.9600982666016	325.0913085937501	-1464.948486328125	407.7360229492188	854.1094360351564	-1030.536743164062	351.4160766601562	701.3327026367189	-995.7322387695312	334.936279296875	646.5421752929689	-1027.305541992188	332.5354614257812	640.7023315429689	-977.5205688476562	281.2051696777344	453.0962829589844	-976.1646728515625	266.0962524414062	398.2192687988282	-1006.795593261719	259.8160400390625	395.7541809082032	-955.96435546875	236.1166687011719	324.1166381835938	-951.6589965820312	182.5140686035156	247.8993988037111	-2324.443115234375	0.04481690004467964	0.223243996500969	-0.3803179860115051	0.3296749889850616	2.978579998016357	-0.2705889940261839	2.754940032958984	0.02313739992678165	-0.02006169967353344	0.007302800193428993	0.0174017995595932	-0.02715140022337437	0.02463020011782646	0.009267999790608883	-0.01110079977661371	0.04567509889602661	0	0	
1431	7.15	200.2769470214844	251.3314514160156	-101.6379928588867	619.09716796875	830.2854614257814	-1197.842651367188	594.9645385742188	888.9200439453126	-1122.550903320312	598.6339111328125	887.4464721679689	-1277.830444335938	435.5359497070312	998.3790893554689	-1204.009887695312	253.4301147460938	1061.778076171875	-1219.504028320312	217.4203033447266	1074.167724609375	-1222.197509765625	155.7603759765625	1077.3876953125	-1171.107421875	155.3403015136719	1077.579345703125	-1221.046752929688	95.81266784667969	1072.034790039062	-1223.995971679688	67.45147705078125	1100.44873046875	-1222.816040039062	7.110742568969727	1089.944091796875	-1171.405517578125	5.364338397979736	1096.511840820312	-1221.1044921875	-111.4723358154297	1027.54443359375	-1248.56591796875	-101.9677505493164	1028.994140625	-1198.387329101562	-161.1884765625	1003.613342285156	-1211.593627929688	-26.52368927001953	739.6240844726564	-1449.974609375	-52.72274017333984	665.1713867187501	-1435.24169921875	-5.563501834869385	681.7525634765626	-1443.682861328125	37.80743408203125	342.1754150390626	-1426.0439453125	5.61729907989502	271.2124633789064	-1414.179077148438	53.74742126464844	282.6305541992189	-1418.6298828125	1.369648933410645	64.39725494384774	-1322.362670898438	212.0976257324219	75.20794677734384	-1330.723876953125	166.3540954589844	54.52382278442391	-1435.289184570312	-33.29489135742188	707.0820312500001	-1007.102478027344	33.22179412841797	662.8378295898439	-1004.53369140625	-14.42969799041748	647.6972045898439	-1009.529846191406	19.71449089050293	337.5483093261719	-1012.537963867188	68.45589447021484	274.6543884277344	-1012.90576171875	19.20494842529297	277.0459899902344	-1022.641479492188	-0.1908513009548187	62.19535446166999	-1113.173706054688	211.5366973876953	69.80356597900398	-1093.285766601562	166.0261840820312	67.0594100952149	-996.7874755859375	364.7434692382812	835.3679199218751	-1213.86962890625	212.8932037353516	789.2959594726564	-1200.080688476562	417.7252807617188	865.7694702148439	-1401.39453125	363.2822265625	742.1480712890626	-1465.707153320312	321.6158142089844	695.2640380859376	-1488.787109375	357.8985900878906	677.0911254882814	-1457.465576171875	288.6515502929688	469.8237609863282	-1460.84033203125	255.4622497558594	416.6770629882814	-1480.356567382812	278.8987731933594	410.6427612304689	-1436.652709960938	239.0976715087891	325.1961364746095	-1464.895141601562	408.1621704101562	853.9693603515626	-1030.657958984375	351.6906127929688	701.1296386718751	-995.8256225585938	335.251953125	646.3418579101564	-1027.425048828125	332.7405090332031	640.5111694335939	-977.64306640625	281.35693359375	453.0070495605469	-976.1774291992188	266.2615356445312	398.0623779296876	-1006.709899902344	259.9327697753906	395.7051391601563	-955.8735961914062	236.0897064208984	324.0167541503907	-951.4320678710938	182.5131530761719	247.8943023681642	-2324.435302734375	0.04873219877481461	0.2225250005722046	-0.3833039999008179	0.3299739956855774	2.981159925460815	-0.2701959908008574	2.751179933547974	0.02192110009491444	-0.01914669945836067	0.007371149957180023	0.01701229996979237	-0.02718600071966648	0.02387800067663193	0.009353949688374996	-0.01109670009464025	0.04496800154447556	0	0	
